<?xml version="1.0" encoding="UTF-8"?>
<svg id="Vrstva_1" data-name="Vrstva 1" xmlns="http://www.w3.org/2000/svg" version="1.1" viewBox="0 0 71.7 30.37">
  <defs>
    <style>
      .cls-1 {
        fill: #4b60a9;
      }

      .cls-1, .cls-2 {
        stroke-width: 0px;
      }

      .cls-2 {
        fill: #fff;
      }
    </style>
  </defs>
  <g>
    <path class="cls-1" d="M18.17,4.3c1.85,1.97,2.77,4.51,2.77,7.63s-.93,5.66-2.79,7.63c-1.86,1.97-4.25,2.95-7.18,2.95s-5.31-.98-7.14-2.95c-1.83-1.97-2.74-4.51-2.74-7.63s.92-5.66,2.76-7.63c1.84-1.97,4.22-2.95,7.15-2.95s5.32.98,7.17,2.95ZM17.16,11.93c0-2.18-.56-3.92-1.67-5.21-1.11-1.29-2.61-1.93-4.49-1.93s-3.38.64-4.49,1.93c-1.11,1.29-1.67,3.02-1.67,5.21s.56,3.92,1.67,5.21c1.11,1.29,2.61,1.93,4.49,1.93s3.36-.65,4.48-1.95c1.12-1.3,1.68-3.03,1.68-5.19Z"/>
    <path class="cls-1" d="M27.78,22.18L21.67,1.71h3.72l3.25,10.81c.41,1.46.72,2.81.92,4.06.24-1.33.58-2.68,1.01-4.06l3.22-10.81h3.95l3.16,10.81c.37,1.31.7,2.66.98,4.06.34-1.59.66-2.93.98-4.03l3.3-10.84h3.64l-6.22,20.47h-3.47l-4.37-14.9-4.45,14.9h-3.53Z"/>
    <path class="cls-1" d="M56.03,22.18h-3.53V1.71h3.56l9.6,14.5V1.71h3.53v20.47h-3.53l-9.63-14.5v14.5Z"/>
  </g>
  <circle class="cls-1" cx="11.73" cy="13.28" r="5.2"/>
  <path class="cls-2" d="M13.39,17.19c.1.12,1.55-.49,2.33-1.83.68-1.16.65-2.49.5-2.53-.13-.03-.3.96-1.14,2.28-.89,1.4-1.78,1.98-1.69,2.08Z"/>
  <g>
    <path class="cls-1" d="M10.82,29.2h-.55v-4.54h2.71v.5h-2.15v1.47h1.91v.5h-1.91v2.08Z"/>
    <path class="cls-1" d="M13.77,29.2v-4.54h.55v4.54h-.55Z"/>
    <path class="cls-1" d="M17.81,27.19c.28.4.55.81.82,1.24h.02c-.03-.44-.04-.89-.04-1.35v-2.42h.56v4.54h-.55l-1.78-2.53c-.31-.44-.58-.85-.82-1.24h-.02c.03.41.04.9.04,1.45v2.32h-.55v-4.54h.55l1.78,2.53Z"/>
    <path class="cls-1" d="M19.86,29.2l1.85-4.54h.48l1.85,4.54h-.6l-.54-1.37h-1.9l-.54,1.37h-.59ZM21.94,25.36c-.2.56-.4,1.08-.58,1.54l-.17.43h1.5l-.17-.43c-.19-.47-.38-.98-.57-1.54h-.01Z"/>
    <path class="cls-1" d="M27.06,27.19c.28.4.55.81.82,1.24h.02c-.03-.44-.04-.89-.04-1.35v-2.42h.56v4.54h-.55l-1.78-2.53c-.31-.44-.58-.85-.82-1.24h-.02c.03.41.04.9.04,1.45v2.32h-.55v-4.54h.55l1.78,2.53Z"/>
    <path class="cls-1" d="M31.76,25.06c-.25,0-.49.04-.71.12-.22.08-.41.2-.58.36-.16.16-.29.36-.38.59s-.14.51-.14.83.04.58.13.81c.09.23.21.42.37.57.16.15.35.26.58.33.23.07.48.11.75.11.08,0,.16,0,.24-.01.08,0,.17-.02.26-.03s.17-.03.25-.05.15-.04.22-.06v.49c-.13.05-.29.09-.46.12-.18.03-.36.04-.54.04-.38,0-.71-.05-1-.16-.29-.11-.54-.26-.73-.45-.2-.2-.35-.44-.45-.72-.1-.28-.15-.61-.15-.97s.05-.68.16-.97c.11-.3.26-.55.46-.76.2-.21.45-.38.74-.5.29-.12.61-.18.97-.18.09,0,.19,0,.28.01s.18.02.27.03.16.03.24.05c.07.02.13.04.19.06v.49c-.14-.04-.29-.08-.45-.11-.16-.03-.33-.05-.49-.05Z"/>
    <path class="cls-1" d="M34.22,28.7h2.33v.5h-2.88v-4.54h2.75v.5h-2.2v1.47h1.96v.5h-1.96v1.58Z"/>
    <path class="cls-1" d="M41.29,29.2h-.25l-1.14-2.71c-.16-.37-.32-.78-.48-1.22h-.03c.03.63.05,1.21.05,1.73v2.2h-.55v-4.54h.8l1.07,2.57c.12.29.26.65.4,1.06h.02c.16-.46.3-.81.4-1.06l1.07-2.57h.8v4.54h-.55v-2.2c0-.51.02-1.09.05-1.73h-.03c-.17.46-.33.87-.48,1.22l-1.14,2.71Z"/>
    <path class="cls-1" d="M44.14,29.2l1.85-4.54h.48l1.85,4.54h-.6l-.54-1.37h-1.9l-.54,1.37h-.59ZM46.22,25.36c-.2.56-.4,1.08-.58,1.54l-.17.43h1.5l-.17-.43c-.19-.47-.38-.98-.57-1.54h-.01Z"/>
    <path class="cls-1" d="M51.34,27.19c.28.4.55.81.82,1.24h.02c-.03-.44-.04-.89-.04-1.35v-2.42h.56v4.54h-.55l-1.78-2.53c-.31-.44-.58-.85-.82-1.24h-.02c.03.41.04.9.04,1.45v2.32h-.55v-4.54h.55l1.78,2.53Z"/>
    <path class="cls-1" d="M53.39,29.2l1.85-4.54h.48l1.85,4.54h-.6l-.54-1.37h-1.9l-.54,1.37h-.59ZM55.48,25.36c-.2.56-.4,1.08-.58,1.54l-.17.43h1.5l-.17-.43c-.19-.47-.38-.98-.57-1.54h-.01Z"/>
    <path class="cls-1" d="M61.17,27.36h-1.04v-.5h1.59v2.2s-.12.05-.21.08c-.09.03-.2.05-.31.07-.12.02-.24.04-.38.05s-.27.02-.4.02c-.39,0-.73-.05-1.03-.16s-.55-.26-.75-.45c-.2-.19-.35-.43-.46-.71-.1-.28-.16-.59-.16-.93,0-.37.06-.71.17-1.01s.28-.56.5-.78c.22-.21.48-.38.78-.5.31-.12.64-.17,1.01-.17.1,0,.2,0,.3.01s.2.02.29.03c.09.01.17.03.25.05.08.02.14.04.19.06v.49c-.14-.04-.29-.08-.47-.11-.18-.03-.35-.05-.53-.05-.26,0-.5.04-.74.12s-.44.2-.62.35c-.18.16-.32.36-.43.6s-.16.52-.16.84.04.59.13.81c.09.23.21.42.38.57.16.15.36.26.59.33s.49.11.77.11c.13,0,.26,0,.39-.02.13-.01.24-.03.34-.06v-1.35Z"/>
    <path class="cls-1" d="M63.39,28.7h2.33v.5h-2.88v-4.54h2.75v.5h-2.2v1.47h1.96v.5h-1.96v1.58Z"/>
    <path class="cls-1" d="M67.22,27.32v1.88h-.55v-4.54h1.18c.2,0,.37,0,.51.02s.27.04.38.07c.32.09.56.23.73.44s.25.47.25.78c0,.18-.03.35-.09.49-.06.14-.14.27-.25.38s-.23.19-.38.26-.31.12-.49.15h0s1.34,1.95,1.34,1.95h-.55l-1.4-1.88h-.67ZM67.22,25.15v1.66h.55c.17,0,.31,0,.43-.02s.23-.03.32-.06c.19-.06.34-.15.45-.28.1-.13.16-.3.16-.51,0-.19-.05-.35-.15-.47-.1-.12-.23-.2-.4-.26-.08-.02-.18-.04-.29-.05s-.26-.02-.43-.02h-.63Z"/>
  </g>
</svg>