<?xml version="1.0" encoding="UTF-8"?>
<svg id="Vrstva_2" data-name="Vrstva 2" xmlns="http://www.w3.org/2000/svg" xmlns:xlink="http://www.w3.org/1999/xlink" viewBox="0 0 1071.551 1071.551">
  <defs>
    <style>
      .cls-1 {
        fill: url(#Nepojmenovaný_přechod_16-2);
      }

      .cls-1, .cls-2, .cls-3, .cls-4 {
        stroke-width: 0px;
      }

      .cls-2 {
        fill: url(#Nepojmenovaný_přechod_19);
      }

      .cls-3 {
        fill: #fff;
      }

      .cls-4 {
        fill: url(#Nepojmenovaný_přechod_16);
      }
    </style>
    <linearGradient id="Nepojmenovaný_přechod_19" data-name="Nepojmenovaný přechod 19" x1="0" y1="535.775" x2="1071.551" y2="535.775" gradientUnits="userSpaceOnUse">
      <stop offset=".578" stop-color="#617ce0"/>
      <stop offset=".606" stop-color="#5c76d4"/>
      <stop offset=".672" stop-color="#546bc0"/>
      <stop offset=".747" stop-color="#4f64b2"/>
      <stop offset=".839" stop-color="#4b60aa"/>
      <stop offset=".994" stop-color="#4b5fa8"/>
    </linearGradient>
    <linearGradient id="Nepojmenovaný_přechod_16" data-name="Nepojmenovaný přechod 16" x1="465.658" y1="420.73" x2="530.801" y2="420.73" gradientTransform="translate(443.429 -229.072) rotate(45)" gradientUnits="userSpaceOnUse">
      <stop offset=".647" stop-color="#617ce0"/>
      <stop offset=".739" stop-color="#5d77d6"/>
      <stop offset=".89" stop-color="#536abd"/>
      <stop offset=".994" stop-color="#4b5fa8"/>
    </linearGradient>
    <linearGradient id="Nepojmenovaný_přechod_16-2" data-name="Nepojmenovaný přechod 16" x1="114.849" y1="792.591" x2="539.607" y2="792.591" gradientTransform="matrix(1,0,0,1,0,0)" xlink:href="#Nepojmenovaný_přechod_16"/>
  </defs>
  <g>
    <path class="cls-2" d="M535.775,0C239.875,0,0,239.875,0,535.775c0,55.98,8.6,109.948,24.525,160.672,35.803-112.804,132.864-198.324,252.148-217.408l-.718-1.308s195.131-350.146,444.848-40.715c0,0-108.572,27.143-119.43,103.144,95.328,214.489,56.733,341.087-9.218,427.574-27.64,41.725-64.889,76.515-108.567,101.281,17.174,1.66,34.577,2.536,52.186,2.536,295.9,0,535.775-239.875,535.775-535.775S831.676,0,535.775,0Z"/>
    <circle class="cls-4" cx="498.229" cy="420.73" r="32.572" transform="translate(-151.573 475.53) rotate(-45)"/>
    <circle class="cls-1" cx="327.228" cy="792.591" r="212.379"/>
  </g>
  <g>
    <path class="cls-3" d="M264.032,250.587c-15.984-15.551-23.973-35.663-23.973-60.335s7.989-44.779,23.973-60.335c15.979-15.551,36.307-23.33,60.979-23.33s44.995,7.778,60.979,23.33c15.979,15.556,23.973,35.668,23.973,60.335s-7.994,44.784-23.973,60.335c-15.984,15.557-36.312,23.33-60.979,23.33s-45-7.773-60.979-23.33ZM292.027,155.177c-8.477,9.01-12.71,20.705-12.71,35.075s4.233,26.065,12.71,35.075c8.472,9.01,19.468,13.515,32.983,13.515s24.506-4.505,32.983-13.515c8.472-9.01,12.711-20.7,12.711-35.075s-4.239-26.064-12.711-35.075c-8.477-9.01-19.468-13.515-32.983-13.515s-24.511,4.505-32.983,13.515Z"/>
    <path class="cls-3" d="M450.827,270.055l-51.486-158.963h40.867l20.916,68.219c3.429,12.228,6.647,25.959,9.654,41.189,2.358-12.012,6.003-25.743,10.94-41.189l21.882-68.219h39.902l21.237,68.219c4.933,16.089,8.366,29.715,10.297,40.867,2.358-11.152,5.898-24.778,10.619-40.867l21.238-68.219h41.511l-55.025,158.963h-36.685l-21.881-68.862c-5.792-19.091-9.548-33.788-11.263-44.085-1.931,9.226-6.114,24.134-12.55,44.729l-21.881,68.219h-38.293Z"/>
    <path class="cls-3" d="M686.052,270.055h-39.258V111.092h36.362l3.218,20.595c4.933-7.934,11.906-14.159,20.916-18.664,9.01-4.505,18.985-6.757,29.926-6.757,19.735,0,34.753,5.792,45.051,17.376,10.297,11.584,15.445,27.784,15.445,48.59v97.823h-39.258v-88.491c0-13.083-2.951-22.953-8.849-29.604-5.903-6.647-14.108-9.976-24.617-9.976-12.017,0-21.51,3.861-28.479,11.584-6.974,7.723-10.458,18.02-10.458,30.892v85.595Z"/>
    <path class="cls-3" d="M855.63,266.355c-5.148,5.038-11.263,7.562-18.342,7.562s-13.193-2.524-18.342-7.562-7.723-10.991-7.723-17.859c0-7.08,2.574-13.138,7.723-18.181,5.148-5.038,11.263-7.562,18.342-7.562s13.193,2.524,18.342,7.562c5.148,5.043,7.723,11.102,7.723,18.181,0,6.868-2.574,12.821-7.723,17.859Z"/>
  </g>
</svg>